<svg width="68" height="138" viewBox="0 0 68 138" fill="none" xmlns="http://www.w3.org/2000/svg">
<path d="M55.1963 122.54C55.4833 124.335 55.7702 126.145 56.0421 127.94C50.0762 129.855 47.1462 131.066 47.267 131.575C47.4181 132.203 52.1907 131.739 61.585 130.229C61.0413 127.387 60.5127 124.545 59.969 121.703C58.368 121.972 56.7822 122.256 55.1963 122.54Z" fill="black"/>
<path d="M42.3584 62.4397C42.2527 64.474 42.1016 67.3758 41.9657 70.8909C41.8298 74.6154 41.7543 76.5599 41.7694 78.9532C41.7694 79.9853 41.8147 84.1884 42.3584 89.6032C42.8115 94.1653 43.5214 100.986 46.0436 109.377C47.0405 112.698 48.581 117.156 50.9825 122.241C52.085 122.406 53.3839 122.495 54.864 122.436C57.6431 122.301 59.8935 121.628 61.4491 121C60.996 119.534 60.3617 117.455 59.6971 114.957C58.806 111.576 56.2385 101.39 55.2416 87.7035C54.7432 80.8229 54.562 72.2371 55.438 62.3649C51.0882 62.3799 46.7233 62.4098 42.3584 62.4397Z" fill="white"/>
<path opacity="0.09" d="M55.0604 63.5915C54.7734 64.6685 54.3958 66.2241 53.9881 68.1088C52.9308 73.0897 51.8434 80.1947 51.9491 92.2059C52.0095 99.595 52.5381 109.811 54.4714 122.151C55.2265 122.077 55.9968 121.987 56.7973 121.867C58.4738 121.613 60.0294 121.284 61.4491 120.91C60.8148 118.876 59.9388 115.854 59.0326 112.175C55.8156 99.0566 54.9094 87.9279 54.6677 80.5836C54.5318 76.2159 54.5318 70.4272 55.0604 63.5915Z" fill="#606060"/>
<path d="M55.1057 62.8286C53.5953 77.966 54.5318 93.3277 57.8696 108.181C58.8212 112.399 59.9539 116.557 61.283 120.671C61.3736 120.94 61.8116 120.82 61.721 120.551C57.0691 106.087 54.7432 90.9195 54.864 75.7372C54.8942 71.4294 55.1359 67.1066 55.5588 62.8137C55.589 62.5444 55.1359 62.5444 55.1057 62.8286Z" fill="#161616"/>
<path d="M41.7392 76.2458C41.1804 88.5112 42.9173 100.851 46.814 112.504C47.9014 115.764 49.1701 118.965 50.6049 122.092C50.7257 122.361 51.1184 122.122 50.9976 121.867C45.938 110.724 42.9626 98.6826 42.2527 86.4919C42.0564 83.0815 42.0413 79.6711 42.1923 76.2458C42.2074 75.9466 41.7543 75.9616 41.7392 76.2458Z" fill="#161616"/>
<path d="M50.7861 122.226C51.2996 122.795 52.4777 122.66 53.1725 122.675C54.2297 122.69 55.3021 122.585 56.3442 122.436C57.477 122.271 58.6097 122.032 59.7274 121.763C60.2862 121.628 61.4492 121.598 61.7362 120.985C61.857 120.73 61.4643 120.491 61.3435 120.76C61.2075 121.074 60.4524 121.134 60.1654 121.194C59.7425 121.299 59.3347 121.389 58.9118 121.493C58.1113 121.673 57.3259 121.837 56.5255 121.957C55.6948 122.092 54.8641 122.181 54.0334 122.211C53.399 122.241 51.5866 122.436 51.1184 121.912C50.907 121.688 50.5898 122.017 50.7861 122.226Z" fill="#161616"/>
<path d="M37.9029 62.35C37.4649 63.2923 36.8759 65.0873 36.453 66.6728C35.9244 68.6921 35.7884 69.9037 35.4864 71.6687C34.9275 74.9295 34.5499 75.483 33.7344 79.0579C32.8735 82.8871 32.4808 85.8338 32.1787 88.1822C31.937 90.007 31.4991 93.7315 31.3027 98.548C31.2121 100.627 31.1668 101.854 31.2121 103.544C31.3329 108.854 32.1938 112.967 32.5714 114.583C33.5833 119.025 35.0635 122.825 36.5436 125.906C37.2233 126.25 38.2503 126.684 39.5492 126.968C41.1501 127.312 43.2042 127.761 45.1677 126.773C45.7114 126.504 46.9499 125.756 47.8863 123.991C47.1613 122.032 46.2702 119.25 45.5603 115.839C43.8083 107.373 44.4427 100.672 44.8807 96.4539C45.6963 88.4813 47.5691 82.4982 50.7861 72.1773C51.8736 68.7071 52.8402 65.895 53.5048 64.0252C53.7313 62.5444 54.2599 58.1019 51.8585 56.2472C48.3394 53.4949 40.1382 57.5784 37.9029 62.35Z" fill="white"/>
<path opacity="0.08" d="M51.3751 70.3076C50.3934 71.8482 49.0341 74.1368 47.6899 77.0236C46.0285 80.5836 43.5818 86.836 42.2678 99.2959C41.5428 106.102 41.0595 115.63 42.1772 127.132C42.6454 127.177 44.639 127.342 46.3457 125.981C47.2217 125.278 47.6748 124.47 47.9014 123.961C47.1613 121.942 46.2098 118.98 45.4848 115.316C43.3401 104.636 44.6843 96.05 45.6812 90.0669C46.4968 85.071 48.0826 78.1754 51.3751 70.3076Z" fill="#606060"/>
<path d="M40.2741 126.938C40.7877 128.763 41.3012 130.603 41.8147 132.428C33.7193 134.866 29.7471 136.391 29.883 136.99C30.034 137.678 35.5468 137.169 46.4212 135.464C46.1343 132.532 45.8473 129.615 45.5755 126.684C43.7932 126.759 42.0261 126.848 40.2741 126.938Z" fill="black"/>
<path d="M37.7368 62.5295C36.1358 66.5382 35.3202 70.7862 34.4593 75.0043C33.5531 79.4169 32.6771 83.8294 32.0428 88.2869C30.8647 96.5436 30.5022 104.995 32.1183 113.222C32.9792 117.649 34.4291 121.957 36.5587 125.936C36.6946 126.19 37.0873 125.966 36.9514 125.711C28.871 110.499 31.3178 92.6994 34.6104 76.5599C35.5619 71.8781 36.4077 67.1066 38.1899 62.6491C38.2805 62.3799 37.8425 62.2602 37.7368 62.5295Z" fill="#161616"/>
<path d="M51.1788 70.2776C46.1192 83.635 42.736 97.9945 44.6994 112.309C45.2432 116.258 46.1947 120.132 47.5842 123.872C47.6899 124.141 48.1279 124.021 48.0222 123.752C42.9928 110.305 44.0198 95.5564 47.7956 81.9298C48.8831 78.0258 50.182 74.1816 51.6168 70.3823C51.7225 70.1131 51.2845 70.0084 51.1788 70.2776Z" fill="#161616"/>
<path d="M36.604 125.921C38.7336 127.088 41.1803 127.581 43.5969 127.267C45.5754 126.998 47.8711 126.1 48.0675 123.842C48.0977 123.558 47.6446 123.558 47.6144 123.842C47.4029 126.19 44.5333 126.818 42.585 126.908C40.5762 126.998 38.5977 126.504 36.8457 125.532C36.5738 125.397 36.3473 125.786 36.604 125.921Z" fill="#161616"/>
<path d="M41.0142 23.3698C40.6064 23.8485 40.0325 24.5814 39.4888 25.5537C37.631 28.7845 37.5102 31.9556 37.48 34.7378C37.4498 38.7913 37.4196 40.8256 37.8576 45.2382C38.2654 49.3665 38.3711 55.2899 36.9061 62.8436C38.2201 63.8009 40.1382 64.9077 42.6454 65.4911C49.8648 67.1664 55.8458 62.9931 56.9785 62.1854C55.5437 53.8539 54.7583 47.1827 54.3052 42.5009C54.0183 39.5392 52.961 35.2314 50.8616 26.6007C50.2273 23.9681 49.5778 21.4552 47.6144 20.7372C44.8958 19.7201 41.5579 22.8463 41.0142 23.3698Z" fill="#EC615B"/>
<path opacity="0.1" d="M47.5389 20.9466C47.7805 21.9189 48.1279 23.3848 48.4753 25.1947C48.9284 27.5281 49.5325 31.0581 49.9554 36.3083C50.3934 41.7231 50.8918 51.8795 51.0429 65.0125C52.0699 64.7133 53.3084 64.2646 54.6224 63.5466C55.4984 63.0679 56.2536 62.5594 56.8879 62.0807C56.7822 60.929 56.5858 59.1789 56.2687 57.0698C55.8609 54.4223 55.4531 52.5825 55.2567 51.6701C54.7734 49.3067 54.2297 45.7767 54.1693 40.8705C53.55 38.2678 53.0818 36.1737 52.7647 34.7826C51.8887 30.8338 51.6319 29.3829 50.9674 26.9896C50.3028 24.5814 49.6081 22.6668 49.1701 21.515C48.6263 21.3056 48.0826 21.1261 47.5389 20.9466Z" fill="#606060"/>
<path d="M40.9991 24.8058C41.135 25.075 41.3615 25.1647 41.86 25.4041C42.2829 25.6135 42.6907 25.8678 43.1136 26.0473C44.4124 26.6007 45.9379 29.0538 46.1796 29.4427C47.1009 30.9235 48.1732 32.6586 48.7924 35.1716C48.9586 35.8297 49.3362 37.5349 48.8982 43.2937C48.43 49.202 47.8258 50.0247 48.294 52.9714C48.6414 55.1104 49.0794 57.6682 51.209 59.0592C53.1876 60.3456 55.4682 59.8969 55.9364 59.8071C58.806 59.2537 60.4372 57.0549 62.0231 54.9159C64.4396 51.6701 65.3609 48.4242 65.7536 46.5395C65.9349 45.657 65.9047 43.0693 65.8593 37.9088C65.7989 32.5838 65.7083 30.744 64.3037 29.1884C63.3522 28.1414 62.1892 27.6478 61.3887 27.3935C61.4491 27.0644 61.4642 26.5708 61.1924 26.152C60.6789 25.3742 59.4555 25.3891 58.6701 25.4041C55.302 25.4938 52.7949 27.7375 52.674 27.8422C50.5747 29.7718 49.9554 32.1351 49.7591 33.1223C49.3362 31.2676 48.6414 29.8466 48.0977 28.9341C47.6295 28.1414 46.9347 27.3336 45.5301 25.6883C44.4276 24.4019 43.8989 23.9083 43.0682 23.639C42.887 23.5792 41.5126 23.1754 41.0595 23.7886C40.848 24.0728 40.848 24.5066 40.9991 24.8058Z" fill="white"/>
<path opacity="0.11" d="M40.8934 24.2523C40.984 24.0878 41.9959 24.4617 42.1016 24.5066C43.5969 25.075 44.926 26.2567 46.6327 28.994C47.5087 30.4 48.6112 32.3894 49.5476 34.9771C50.2122 34.304 50.771 33.7506 51.209 33.3317C51.209 33.3317 52.8251 31.7911 55.4379 30.2953C55.6947 30.1457 56.0119 29.9662 56.2384 30.1008C56.7066 30.3551 56.2082 31.5966 56.3441 32.7484C56.4499 33.6159 56.9634 34.8126 58.9117 36.1438C58.957 36.3981 58.9721 36.7571 58.7607 36.9964C58.3378 37.4601 57.2503 37.0862 56.6915 36.8917C55.7853 36.5776 54.0333 35.7549 51.9642 33.3467C51.7678 34.1245 51.5111 35.2314 51.3147 36.5925C51.1335 37.7742 50.6351 41.7081 51.4657 46.7639C51.798 48.7682 52.4173 51.4457 53.686 54.4971C54.2448 54.7364 54.9546 54.9608 55.8004 55.0954C57.5675 55.3646 59.0326 55.0206 59.8783 54.7514C59.3799 54.9907 58.7003 55.3946 58.1112 56.0976C57.4014 56.9502 57.3863 57.5934 56.7972 58.3861C56.4046 58.9246 55.6947 59.5977 54.3807 60.0764C53.9729 60.0315 53.3537 59.9268 52.674 59.6276C50.6049 58.7152 49.6684 56.7856 49.2455 55.8882C48.6867 54.6766 47.8258 52.2235 48.6414 43.9219C49.1096 39.1802 49.6231 37.6994 48.8378 34.9921C48.2336 32.9129 47.1915 31.1928 46.829 30.6094C46.1796 29.5624 45.0166 27.6926 42.9021 25.9725C41.9053 25.1348 40.8028 24.4468 40.8934 24.2523Z" fill="#606060"/>
<path d="M57.7337 27.6029C57.4618 27.9619 57.1144 28.4854 56.8426 29.1735C56.6915 29.5773 56.3291 30.5197 56.4197 31.7163C56.5858 34.0946 58.3076 35.5455 58.6248 35.7998C58.8362 35.9643 59.0175 36.0989 59.1383 36.1737C58.9571 36.787 58.7456 37.6994 58.6701 38.8213C58.5493 40.4068 58.4285 42.1868 59.3649 42.7103C59.969 43.0394 60.8752 42.815 61.3736 42.3364C61.4945 42.2167 61.8419 41.8427 61.9325 40.1525C62.0382 38.1482 61.6153 37.3105 62.2195 36.7272C62.4762 36.4579 62.9142 36.2934 63.2918 36.1288C63.7147 35.9494 64.0923 35.8596 64.3641 35.7998C64.198 37.0263 64.0772 38.1182 63.9866 39.0008C63.8808 40.0927 63.8355 40.6461 64.2131 40.9901C64.5605 41.3043 65.1344 41.3641 65.5724 41.1696C66.1464 40.9154 66.3276 40.2123 66.6448 38.8063C66.9015 37.6994 67.113 36.772 66.9771 35.5156C66.9016 34.8724 66.7656 34.3489 66.6448 33.9899C66.6146 33.7356 66.5391 33.3616 66.4182 32.9279C66.1615 32.0603 65.9198 31.806 65.7688 31.2526C65.5422 30.4598 65.799 30.0709 65.8594 29.1735C65.9198 28.4704 65.8594 27.4683 65.3459 26.2118C65.1495 26.2268 64.7417 26.2567 64.3188 26.5409C63.8053 26.8699 63.5939 27.3486 63.5184 27.5131C63.1257 27.4234 62.4158 27.3336 61.6002 27.558C60.1956 27.932 59.4555 28.964 59.2591 29.2782C59.6518 28.4256 59.3196 27.5879 58.7909 27.3785C58.3378 27.1841 57.7941 27.573 57.7337 27.6029Z" fill="black"/>
<path d="M59.4404 32.2398C59.5914 31.9556 60.3466 31.3274 60.6034 31.8509C60.7242 32.1052 61.1169 31.8808 60.996 31.6265C60.8299 31.2825 60.4221 31.1778 60.0596 31.2526C59.6216 31.3274 59.2591 31.6265 59.0477 32.0154C58.9118 32.2697 59.3045 32.4941 59.4404 32.2398Z" fill="white"/>
<path d="M63.8657 31.0881C63.9563 30.8936 64.0469 30.6692 64.1979 30.5197C64.349 30.3701 64.8021 30.2055 64.8172 30.5496C64.8323 30.8338 65.2854 30.8338 65.2703 30.5496C65.2401 30.1158 64.8625 29.8316 64.4245 29.8914C63.9261 29.9812 63.6693 30.4299 63.473 30.8487C63.3521 31.118 63.7448 31.3573 63.8657 31.0881Z" fill="white"/>
<path d="M63.9865 32.5091C63.9865 32.524 63.9865 32.539 63.9865 32.5539C63.9563 32.5838 63.9261 32.6138 63.911 32.6287C63.8355 32.6736 63.7147 32.6287 63.7298 32.539C63.7298 32.539 63.7298 32.4941 63.7449 32.5091L63.6996 32.5539C63.8053 32.5539 63.911 32.5539 64.0167 32.5539C64.0016 32.539 64.0016 32.539 63.9865 32.524C64.0016 32.539 64.0016 32.539 64.0016 32.539C63.9865 32.524 64.0016 32.524 64.0016 32.5539C64.0167 32.6437 63.9714 32.7035 63.8506 32.7484C63.8053 32.7334 63.7751 32.7334 63.7298 32.7185C63.6693 32.6885 63.6844 32.5988 63.6996 32.5539C63.7147 32.539 63.6995 32.539 63.6844 32.5689C63.6995 32.5539 63.6995 32.5539 63.6844 32.5689C63.5787 32.6437 63.5334 32.7633 63.6089 32.883C63.6693 32.9728 63.8204 33.0326 63.9261 32.9578C64.0318 32.883 64.1376 32.7783 64.1527 32.6287C64.1527 32.4642 64.0318 32.3146 63.8657 32.3146C63.6995 32.3146 63.5787 32.4193 63.5636 32.5838C63.5485 32.7035 63.624 32.8082 63.6996 32.883C63.7902 32.9728 63.9261 32.9578 64.0167 32.883C64.2131 32.7334 64.2584 32.4193 64.0318 32.2697C63.9261 32.2099 63.7902 32.1949 63.6844 32.2548C63.5485 32.3296 63.5334 32.5091 63.5636 32.6437C63.5787 32.7633 63.7298 32.8232 63.8355 32.7933C63.9563 32.7484 64.0016 32.6287 63.9865 32.5091Z" fill="white"/>
<path d="M61.57 32.9727C61.132 33.227 60.5429 33.1074 60.256 32.6885C60.0898 32.4492 59.6971 32.6736 59.8633 32.9129C60.3013 33.5262 61.132 33.7356 61.8117 33.3616C62.0533 33.2121 61.8267 32.8232 61.57 32.9727Z" fill="white"/>
<path d="M61.2377 33.945C60.9054 34.1993 60.6184 34.5284 60.4221 34.9023C60.2862 35.1566 60.6789 35.381 60.8148 35.1267C60.996 34.7827 61.2528 34.4985 61.57 34.2591C61.6606 34.1843 61.6455 34.0198 61.57 33.945C61.4643 33.8553 61.3283 33.8702 61.2377 33.945Z" fill="white"/>
<path d="M64.9078 32.2997C65.2099 31.9556 65.4364 31.5667 65.5874 31.1329C65.6781 30.8637 65.2401 30.744 65.1495 31.0133C65.0286 31.3723 64.8323 31.7013 64.5906 31.9855C64.4094 32.2099 64.7266 32.524 64.9078 32.2997Z" fill="white"/>
<path d="M64.9381 32.868C65.3005 32.7932 65.7234 32.7035 66.0104 33.0027C66.2068 33.2121 66.5239 32.898 66.3276 32.6885C65.9198 32.2548 65.3307 32.3296 64.8021 32.4492C64.5303 32.4941 64.6511 32.9279 64.9381 32.868Z" fill="white"/>
<path d="M40.8179 24.4617C41.5126 23.3848 43.1589 24.0279 43.9896 24.5664C44.9864 25.1947 45.7416 26.137 46.4212 27.0793C47.7956 28.979 49.019 31.0432 49.4721 33.3616C49.5325 33.6458 49.9705 33.5262 49.9101 33.242C49.3815 30.4748 47.7503 27.8123 45.9077 25.6883C44.8354 24.4617 41.7996 22.1433 40.4252 24.2523C40.2741 24.4767 40.6668 24.716 40.8179 24.4617Z" fill="#161616"/>
<path d="M41.7543 25.4789C45.3791 27.4982 47.418 31.2825 48.4451 35.1416C48.5206 35.4258 48.9586 35.3062 48.8831 35.022C47.8258 31.0581 45.6963 27.1542 41.9808 25.09C41.7241 24.9404 41.4975 25.3293 41.7543 25.4789Z" fill="#161616"/>
<path d="M49.9101 33.1672C50.2877 30.5197 51.9944 28.3059 54.3354 27.0345C55.5437 26.3763 56.8879 25.9725 58.2623 25.778C58.9118 25.6883 59.667 25.5985 60.3013 25.8379C60.9961 26.0921 61.6606 27.1841 60.7846 27.6777C60.5279 27.8123 60.7544 28.2012 61.0112 28.0666C61.9778 27.5281 61.7361 26.152 60.8903 25.6284C59.5763 24.8058 57.4014 25.3891 56.0572 25.8379C52.7344 26.8999 49.9856 29.5624 49.4872 33.0775C49.4268 33.3318 49.8648 33.4514 49.9101 33.1672Z" fill="#161616"/>
<path d="M50.9221 33.8403C51.6621 32.9877 52.5986 32.2697 53.5048 31.5966C54.3807 30.9385 55.3171 30.4 56.4046 30.1607C56.6915 30.1008 56.5707 29.6671 56.2838 29.7269C55.1661 29.9812 54.1844 30.5346 53.2782 31.2077C52.3418 31.9107 51.3752 32.6437 50.6049 33.5262C50.4086 33.7356 50.7257 34.0647 50.9221 33.8403Z" fill="#161616"/>
<path d="M56.465 30.2055C56.7822 29.4876 57.19 28.7995 57.6884 28.1862C57.779 28.0815 57.8847 27.902 58.0056 27.8272C58.1113 27.6328 58.2472 27.6178 58.4436 27.7973C58.6852 27.7973 58.7909 27.8871 58.7909 28.0965C58.9571 28.4106 58.9722 28.9491 59.0326 29.3081C59.093 29.5923 59.531 29.4726 59.4706 29.1884C59.3498 28.62 59.1987 26.5857 58.1113 27.1392C57.6884 27.3486 57.3712 27.8721 57.0994 28.2311C56.6916 28.7845 56.3593 29.3679 56.0724 29.9812C55.9515 30.2354 56.3442 30.4748 56.465 30.2055Z" fill="#161616"/>
<path d="M59.38 29.4427C60.1502 28.4555 61.721 27.0943 63.0652 27.8272C63.322 27.9619 63.5485 27.573 63.2918 27.4383C61.7361 26.6157 59.9841 27.9619 59.0477 29.1286C58.8816 29.3529 59.1987 29.6671 59.38 29.4427Z" fill="#161616"/>
<path d="M63.5032 27.7524C63.7147 27.4234 64.6964 26.2417 65.1193 26.5558C65.3458 26.7204 65.3912 27.3037 65.4516 27.573C65.5422 27.9918 65.5724 28.4106 65.5875 28.8444C65.6026 29.1286 66.0557 29.1286 66.0406 28.8444C66.0255 28.2461 65.95 27.6627 65.7989 27.0793C65.7083 26.7503 65.6328 26.122 65.2401 26.0173C64.8776 25.9276 64.3792 26.2716 64.1074 26.4661C63.6996 26.7503 63.3824 27.1093 63.1256 27.5281C62.9595 27.7674 63.3522 27.9918 63.5032 27.7524Z" fill="#161616"/>
<path d="M51.5111 33.1074C52.5532 34.1095 53.6558 35.0369 54.8339 35.8746C55.9968 36.6972 57.1296 37.2806 58.5946 37.2058C58.8816 37.1909 58.8816 36.7421 58.5946 36.7571C57.0994 36.8319 55.9968 36.1737 54.8339 35.3361C53.7615 34.5583 52.7647 33.7057 51.8132 32.7932C51.6168 32.5988 51.2996 32.9129 51.5111 33.1074Z" fill="#161616"/>
<path d="M48.4602 34.648C50.1065 41.8876 45.8171 49.8003 49.3664 56.7258C50.0309 58.0271 51.0429 59.2088 52.4324 59.7922C53.7917 60.3606 55.3625 60.3157 56.7671 59.867C59.8784 58.8797 61.8872 56.0228 63.4277 53.3304C64.4095 51.6401 65.225 49.8302 65.7084 47.9306C65.95 46.9882 66.1011 46.001 66.1464 45.0288C66.1917 43.9069 66.0406 42.7851 66.0859 41.6632C66.101 41.379 65.6479 41.379 65.6328 41.6632C65.5724 43.4881 65.8141 45.2232 65.4516 47.0331C65.1344 48.6486 64.5454 50.2191 63.8053 51.685C62.4309 54.4373 60.5732 57.5335 57.7186 58.9844C56.2385 59.7323 54.411 60.0165 52.8251 59.4332C51.2694 58.8648 50.2424 57.5036 49.5778 56.0527C48.1581 52.8966 48.3243 49.3067 48.7018 45.9561C49.1247 42.1568 49.7893 38.3127 48.9284 34.5134C48.8227 34.2591 48.3847 34.3638 48.4602 34.648Z" fill="#161616"/>
<path d="M55.1812 49.6208C54.3354 51.0867 53.7766 52.6722 53.535 54.3475C53.4896 54.6317 53.9276 54.7514 53.973 54.4672C54.2146 52.8218 54.7432 51.2812 55.5739 49.8452C55.7249 49.6059 55.3323 49.3815 55.1812 49.6208Z" fill="#161616"/>
<path d="M55.4682 49.7853C57.7035 49.5909 60.0596 49.1721 62.2949 49.4114C62.5819 49.4413 62.5819 48.9926 62.2949 48.9627C60.0596 48.7084 57.7035 49.1422 55.4682 49.3366C55.1812 49.3665 55.1812 49.8153 55.4682 49.7853Z" fill="#161616"/>
<path d="M53.7615 54.7514C54.864 55.3946 56.1478 55.3347 57.3863 55.3048C58.6852 55.2599 59.9841 55.1104 61.1169 54.4373C61.3736 54.2877 61.132 53.8988 60.8903 54.0484C59.818 54.6915 58.6097 54.8112 57.3863 54.8561C56.2385 54.9009 55.0302 54.9757 53.988 54.3774C53.7464 54.2278 53.5198 54.6167 53.7615 54.7514Z" fill="#161616"/>
<path d="M62.0835 49.3067C61.7965 50.9521 61.3585 52.5376 60.7695 54.0932C60.6638 54.3625 61.1018 54.4821 61.2075 54.2129C61.8116 52.6573 62.2496 51.0568 62.5215 49.4264C62.5668 49.1422 62.1288 49.0225 62.0835 49.3067Z" fill="#161616"/>
<path d="M55.0604 50.3986C55.8004 52.0141 57.8998 52.4179 59.5159 52.4329C59.8028 52.4329 59.8028 51.9842 59.5159 51.9842C58.0659 51.9543 56.1176 51.6252 55.453 50.1593C55.3322 49.905 54.9395 50.1443 55.0604 50.3986Z" fill="#161616"/>
<path d="M58.3227 51.8495C58.2774 52.2235 58.2321 52.5974 58.1868 52.9564C58.1566 53.2406 58.6097 53.2406 58.6399 52.9564C58.6852 52.5825 58.7305 52.2085 58.7758 51.8495C58.806 51.5653 58.3529 51.5653 58.3227 51.8495Z" fill="#161616"/>
<path d="M59.1836 51.8495C59.1383 52.2235 59.093 52.5974 59.0628 52.9714C59.0326 53.2556 59.4857 53.2556 59.5159 52.9714C59.5612 52.5974 59.6065 52.2235 59.6368 51.8495C59.667 51.5653 59.2138 51.5653 59.1836 51.8495Z" fill="#161616"/>
<path d="M59.5763 52.4778C60.6487 52.2385 61.5398 51.5803 62.0986 50.6529C62.2496 50.3986 61.8569 50.1743 61.7059 50.4286C61.1924 51.2662 60.407 51.8196 59.4555 52.044C59.1685 52.1188 59.2893 52.5526 59.5763 52.4778Z" fill="#161616"/>
<path d="M56.2687 29.3978C55.8156 32.0454 56.314 35.2015 59.0477 36.413C59.3045 36.5327 59.5461 36.1438 59.2743 36.0241C56.7218 34.8873 56.2838 31.9706 56.7067 29.5175C56.752 29.2333 56.314 29.1136 56.2687 29.3978Z" fill="#161616"/>
<path d="M65.5573 28.6799C65.5875 29.5325 65.5724 30.4 65.6932 31.2376C65.814 32.1501 66.6447 33.1672 66.2067 34.0796C66.0859 34.3339 66.4786 34.5732 66.5994 34.304C66.9921 33.4813 66.6447 32.7933 66.3578 31.9855C65.9802 30.9534 66.0708 29.7568 66.0255 28.6649C65.9953 28.3807 65.5422 28.3807 65.5573 28.6799Z" fill="#161616"/>
<path d="M60.2862 36.0989C60.9507 35.7549 61.7059 36.1139 61.8569 36.8319C61.872 36.9067 61.9778 36.8767 61.9627 36.802C61.7814 36.0092 60.9507 35.6203 60.2258 35.9942C60.1653 36.0391 60.2257 36.1438 60.2862 36.0989Z" fill="white"/>
<path d="M61.4341 36.8618C61.5398 36.9814 61.6153 37.116 61.6606 37.2656C61.6908 37.3404 61.7965 37.3105 61.7663 37.2357C61.7059 37.0712 61.6153 36.9216 61.5096 36.787C61.4643 36.7271 61.3737 36.8169 61.4341 36.8618Z" fill="white"/>
<path d="M64.4698 35.8147C64.6058 35.2015 64.9984 34.6929 65.5723 34.4087C65.6327 34.3788 65.5874 34.2741 65.5119 34.3189C64.9078 34.6031 64.5 35.1416 64.3641 35.7848C64.349 35.8596 64.4547 35.8895 64.4698 35.8147Z" fill="white"/>
<path d="M37.8727 4.10409C36.8306 4.62762 35.9546 5.61484 35.5619 6.04862C34.5953 7.14054 34.0968 8.15767 33.5531 9.29447C33.1 10.2219 32.5714 11.5381 32.1485 13.1835C32.7375 13.2882 33.3266 13.378 33.9156 13.4827C33.8854 14.0511 33.8854 14.8887 34.1119 15.8759C34.3234 16.7734 34.6708 18.2094 35.879 19.2115C37.5404 20.6176 39.7455 20.2735 40.1533 20.2137C40.1835 20.9167 40.3345 21.9189 40.9085 22.951C41.0595 23.2053 41.2105 23.4446 41.3616 23.654C42.1923 23.4147 43.4761 22.9211 44.7296 21.9039C47.9316 19.3461 48.3696 15.5319 48.5055 14.425C48.7018 12.7198 49.0794 9.50388 46.9498 6.84138C44.7296 4.08914 40.5158 2.7878 37.8727 4.10409Z" fill="white"/>
<path d="M34.7765 7.21533C35.1994 6.5871 36.015 5.65971 36.9363 5.01652C38.4164 3.98443 39.081 4.41821 39.8361 3.50578C40.3799 2.84763 40.7272 1.77067 40.3195 1.2621C39.67 0.454376 37.3592 1.42664 37.0571 1.56126C36.3926 1.84546 34.2026 2.75789 33.3266 5.0614C32.6016 6.99096 33.0849 9.10002 33.4172 9.14489C33.5078 9.15985 33.5682 9.01027 34.0515 8.27734C34.2781 7.90339 34.5349 7.55936 34.7765 7.21533Z" fill="#FEA300"/>
<path d="M38.0691 2.71301C37.9482 3.10192 37.767 3.87973 38.3711 5.40543C39.4435 8.14272 41.9506 10.5958 43.2042 10.1471C43.4761 10.0424 43.7631 9.77312 44.3068 9.74321C44.4427 9.74321 44.9864 9.71329 45.4093 10.0424C46.0739 10.5659 46.1041 11.7027 45.6661 12.4356C45.5906 12.5702 45.1828 13.1835 44.5635 13.2284C44.0198 13.2733 43.8386 12.8544 43.4006 12.8245C42.3282 12.7647 41.4069 15.0981 41.2861 15.4122C41.0444 16.0106 40.4554 17.5662 40.8783 19.5556C40.9689 19.9893 41.1804 20.9018 41.8298 21.8441C43.2344 23.8634 45.5906 24.357 46.4666 24.5365C47.3275 24.716 50.6049 25.3891 53.1574 23.295C53.5652 22.966 54.9094 21.8292 55.2719 19.8996C55.8911 16.6388 53.1272 14.2007 52.961 14.066C52.8402 12.3758 52.4324 9.68338 50.9976 6.73668C50.0914 4.86695 49.2456 3.14679 47.3275 1.84546C44.8052 0.155221 41.1351 -0.323433 39.2169 1.14244C39.0206 1.32193 38.3711 1.8305 38.0691 2.71301Z" fill="#FEA300"/>
<path d="M35.1994 18.7628C34.9728 18.9872 34.3083 19.6752 34.1874 20.7522C34.0213 22.248 35.0332 23.2801 35.2447 23.4895C36.3472 24.6113 38.1898 25.06 39.519 24.3869C39.6247 24.3421 40.7876 23.7288 40.833 22.8463C40.8481 22.4574 40.6366 22.2629 40.3345 21.3954C40.1382 20.827 40.0174 20.3633 39.9267 20.0492C39.519 20.1838 38.8242 20.3633 37.9633 20.2436C36.4227 20.0492 35.4712 19.0619 35.1994 18.7628Z" fill="#FEA300"/>
<path opacity="0.12" d="M38.2201 4.0293C38.2352 4.49299 38.2956 5.18106 38.6128 5.91399C38.8243 6.4076 39.0357 6.70676 39.2018 6.94608C39.8362 7.90338 40.0476 8.80086 40.3799 9.80303C40.9085 11.3586 40.8179 12.66 40.7122 14.2754C40.6216 15.6216 40.3195 17.6709 39.3378 20.0492C39.7456 20.1688 40.3346 20.4081 40.9689 20.827C42.1319 21.6048 42.6605 22.5322 42.9928 22.9659C43.6724 23.8485 45.1828 24.7758 48.8227 24.716C48.4602 24.357 47.9467 23.8185 47.3879 23.1604C46.0739 21.6347 44.926 20.3034 44.2464 18.688C43.8537 17.7606 43.2496 15.861 43.7178 13.1087C44.1407 13.3181 44.6391 13.3032 45.0317 13.0489C45.4395 12.7796 45.6963 12.2412 45.5604 11.7476C45.3942 11.1792 44.6995 10.7903 43.9896 10.9697C43.8386 10.5958 43.5969 10.0573 43.2042 9.47396C42.585 8.56153 41.9356 7.99313 41.6939 7.78372C40.9236 7.12558 39.806 6.00374 38.2201 4.0293Z" fill="#606060"/>
<path opacity="0.14" d="M32.3147 12.9143C32.3298 12.6749 33.1001 12.4805 33.7495 12.5254C34.3234 12.5702 35.003 12.8245 34.9879 13.0489C34.9728 13.2583 34.3385 13.4228 33.8703 13.4378C33.1454 13.4677 32.3147 13.1536 32.3147 12.9143Z" fill="#606060"/>
<path d="M34.1874 7.34994C33.3266 9.21968 32.5563 11.1193 31.8918 13.0638C31.8464 13.1835 31.9371 13.3032 32.0428 13.3331C32.6318 13.5575 33.2208 13.6622 33.8401 13.6472C34.127 13.6472 34.127 13.1985 33.8401 13.1985C33.251 13.1985 32.7073 13.0938 32.1636 12.8993C32.2089 12.9891 32.2693 13.0788 32.3146 13.1686C32.9641 11.2539 33.7041 9.38421 34.565 7.55936C34.701 7.32003 34.3083 7.0807 34.1874 7.34994Z" fill="#161616"/>
<path d="M33.7797 13.7369C33.9005 15.6665 34.0817 17.8055 35.5317 19.2564C36.9212 20.6624 38.9299 20.5428 40.7574 20.3333C41.0444 20.3034 41.0444 19.8547 40.7574 19.8846C39.0659 20.0791 37.1477 20.2436 35.8488 18.9423C34.4895 17.5811 34.3536 15.5468 34.2328 13.7369C34.2177 13.4528 33.7646 13.4528 33.7797 13.7369Z" fill="#161616"/>
<path d="M39.8664 20.3782C40.0627 21.4253 40.4252 22.4275 40.9387 23.3548C41.0746 23.6091 41.4673 23.3848 41.3314 23.1305C40.833 22.218 40.5007 21.2757 40.3043 20.2586C40.259 19.9744 39.821 20.094 39.8664 20.3782Z" fill="#161616"/>
<path d="M34.0817 16.0255C34.8218 16.6687 35.9244 16.3695 36.2114 15.4272C36.302 15.143 35.864 15.0383 35.7733 15.3075C35.5921 15.9058 34.8822 16.1302 34.414 15.6964C34.1875 15.5169 33.8703 15.8311 34.0817 16.0255Z" fill="#161616"/>
<path d="M35.4713 15.4122C35.7129 15.4721 35.8941 15.6067 36.0452 15.7862C36.1207 15.8759 36.2868 15.861 36.3624 15.7862C36.453 15.6964 36.4379 15.5618 36.3624 15.4721C36.166 15.2327 35.8941 15.0532 35.5921 14.9785C35.3202 14.9037 35.1994 15.3374 35.4713 15.4122Z" fill="#161616"/>
<path d="M36.1509 9.81799C36.2717 9.18976 37.0571 9.30943 37.48 9.53379C37.8425 9.72824 38.0993 10.0424 38.2503 10.4163C38.356 10.6855 38.794 10.5659 38.6883 10.2966C38.4467 9.65346 37.9482 9.14489 37.2535 8.9654C36.6191 8.80086 35.8639 8.99531 35.728 9.69833C35.6676 9.98253 36.1056 10.1022 36.1509 9.81799Z" fill="#161616"/>
<path d="M36.1358 7.17045C36.8154 6.04861 38.1445 6.91617 38.4164 7.85852C38.4919 8.14272 38.9299 8.02305 38.8544 7.73885C38.6581 7.05079 38.1747 6.4076 37.4347 6.22811C36.7701 6.07853 36.0905 6.36273 35.7431 6.93113C35.5921 7.20037 35.9848 7.42474 36.1358 7.17045Z" fill="#161616"/>
<path d="M36.5889 12.3608C36.8759 12.3608 36.8759 11.9121 36.5889 11.9121C36.3019 11.9121 36.2868 12.3608 36.5889 12.3608Z" fill="#161616"/>
<path d="M37.4498 11.6877C37.4649 11.6877 37.4951 11.6877 37.5102 11.6877C37.631 11.6877 37.7368 11.583 37.7368 11.4634C37.7368 11.3437 37.631 11.239 37.5102 11.239C37.4951 11.239 37.4649 11.239 37.4498 11.239C37.3289 11.239 37.2232 11.3437 37.2232 11.4634C37.2232 11.598 37.3289 11.6877 37.4498 11.6877Z" fill="#161616"/>
<path d="M37.4649 12.4506C37.4649 12.4655 37.4649 12.4805 37.4649 12.4954C37.4649 12.7796 37.918 12.7796 37.918 12.4954C37.918 12.4805 37.918 12.4655 37.918 12.4506C37.918 12.1664 37.4649 12.1664 37.4649 12.4506C37.4649 12.4655 37.4649 12.4805 37.4649 12.4954C37.4649 12.7796 37.918 12.7796 37.918 12.4954C37.918 12.4805 37.918 12.4655 37.918 12.4506C37.918 12.1664 37.4649 12.1664 37.4649 12.4506Z" fill="#161616"/>
<path d="M44.05 10.162C44.4578 9.57867 45.1525 9.95262 45.3942 10.4313C45.5905 10.8052 45.5905 11.254 45.5754 11.6578C45.515 12.6749 44.6541 13.3929 43.6573 12.7647C43.4156 12.6002 43.1891 12.9891 43.4307 13.1536C44.0198 13.5425 44.7749 13.5874 45.364 13.1386C45.9681 12.675 46.0739 11.9121 46.0285 11.1941C45.9832 10.5061 45.7114 9.74321 44.9864 9.48892C44.4729 9.30943 43.9594 9.50388 43.6573 9.93766C43.5063 10.162 43.8989 10.3864 44.05 10.162Z" fill="#161616"/>
<path d="M3.42178 1.62109C3.10461 1.62109 2.78744 1.63605 2.48537 1.63605C1.97186 2.62326 1.68489 3.52074 1.51875 4.17888C1.03544 6.10844 1.15627 7.70894 1.24689 8.48674C1.3073 9.01027 1.39792 9.44405 1.47344 9.7432C1.7453 9.7432 2.01716 9.7432 2.28902 9.7432C2.39475 10.1022 2.50048 10.4612 2.6062 10.8202C5.15868 10.8052 7.25806 10.8052 8.7231 10.8202C17.6039 10.895 23.7963 11.239 25.2312 11.3138C27.0285 11.4185 28.4935 11.5232 29.3997 11.583C29.4299 11.0296 29.581 10.8351 29.7169 10.7753C29.9585 10.6706 30.17 10.9249 30.4872 10.865C30.8194 10.8052 31.0309 10.4612 31.1668 10.1471C31.4387 10.2817 31.9371 10.4612 32.5261 10.3714C32.6621 10.3565 32.7829 10.3116 32.8886 10.2817C33.1454 9.77312 33.4021 9.26455 33.6589 8.75599C33.2964 8.63632 32.7829 8.53162 32.1636 8.53162C31.8163 8.53162 31.5142 8.57649 31.2574 8.62136C31.2272 8.54657 30.9856 7.87347 30.3512 7.72389C30.1549 7.67902 29.9887 7.69398 29.8528 7.72389C29.7622 7.55936 29.6716 7.39482 29.5809 7.23028C29.2185 7.17045 28.6596 7.08071 27.9951 6.96104C22.6032 5.98878 18.8424 4.80711 15.9727 3.95451C13.2239 3.13183 9.22151 2.00999 4.08634 0.76849C3.87489 1.05269 3.64833 1.33689 3.42178 1.62109Z" fill="white"/>
<path opacity="0.07" d="M1.2922 7.42473C1.42813 7.39482 1.57917 7.73885 1.74531 7.69397C2.01717 7.63414 1.95675 6.6918 2.01717 5.98878C2.06248 5.31567 2.25882 4.34341 2.92337 3.16174C3.36137 3.34123 4.02593 3.62543 4.82641 3.96947C7.71116 5.21097 9.70481 6.16827 10.3089 6.43751C14.2963 8.27733 18.6762 9.10001 19.7788 9.30942C22.286 9.78808 25.7597 10.2069 29.9283 10.0274C29.747 10.521 29.5658 11.0146 29.3846 11.5082C28.6898 11.4933 27.6779 11.4933 26.4394 11.4634C21.123 11.3587 17.4076 11.1941 15.278 11.1044C12.2724 10.9847 7.96792 10.865 2.53069 10.88C2.47027 10.4761 2.40986 10.0723 2.34944 9.66841C2.00206 9.72824 1.65468 9.78808 1.3073 9.84791C1.08075 7.97817 1.14117 7.45465 1.2922 7.42473Z" fill="#606060"/>
<path d="M3.739 0.783448C1.85104 3.67031 1.3224 7.2602 2.28904 10.5659C2.36456 10.8501 2.80257 10.7304 2.72705 10.4462C1.79062 7.24524 2.30414 3.80493 4.13169 1.00782C4.29783 0.753533 3.90514 0.529165 3.739 0.783448Z" fill="#161616"/>
<path d="M4.13167 1.21723C12.6349 3.34124 21.123 5.46525 29.6262 7.5743C29.9132 7.64909 30.034 7.21532 29.7471 7.14053C21.2438 5.01652 12.7557 2.8925 4.25249 0.783449C3.98063 0.70866 3.85981 1.14244 4.13167 1.21723Z" fill="#161616"/>
<path d="M2.60621 11.0595C11.4719 10.9847 20.3376 11.1941 29.1882 11.6728C29.4752 11.6877 29.4752 11.239 29.1882 11.224C20.3376 10.7454 11.4719 10.536 2.60621 10.6108C2.31925 10.6108 2.31925 11.0595 2.60621 11.0595Z" fill="#161616"/>
<path d="M29.4903 7.40978C30.0945 8.74103 29.9585 10.2518 29.1278 11.4634C28.9617 11.7027 29.3544 11.927 29.5205 11.6877C30.4419 10.3415 30.5627 8.66624 29.883 7.18541C29.7622 6.93113 29.3695 7.15549 29.4903 7.40978Z" fill="#161616"/>
<path d="M29.9434 7.99314C30.1095 8.1128 30.2304 8.06793 30.4267 8.1128C30.8043 8.2175 30.9553 8.56153 31.0309 8.92052C31.1517 9.57867 30.9855 10.9697 30.0038 10.5808C29.7319 10.4761 29.6111 10.9099 29.883 11.0146C30.8798 11.4035 31.5293 10.3714 31.5293 9.50388C31.5293 9.02523 31.4689 8.48675 31.197 8.08288C31.1064 7.94826 30.9855 7.81364 30.8345 7.73885C30.6382 7.64911 30.3663 7.70894 30.2002 7.58928C29.9283 7.4397 29.7017 7.8286 29.9434 7.99314Z" fill="#161616"/>
<path d="M31.2725 8.81581C32.0428 8.77094 32.8131 8.7859 33.5682 8.8906C33.8552 8.92052 33.8552 8.47179 33.5682 8.44187C32.798 8.35212 32.0428 8.32221 31.2725 8.36708C30.9856 8.397 30.9856 8.84573 31.2725 8.81581Z" fill="#161616"/>
<path d="M31.2121 10.4612C31.8313 10.5659 32.4506 10.6108 33.0698 10.5509C33.3568 10.521 33.3568 10.0723 33.0698 10.1022C32.4808 10.1471 31.9068 10.1321 31.3329 10.0274C31.046 9.98253 30.9251 10.4013 31.2121 10.4612Z" fill="#161616"/>
<path d="M3.48221 1.50143C2.01718 0.663786 1.60938 3.28141 1.41304 4.10409C0.959933 6.00373 0.748482 7.96321 1.30731 9.86286C1.33752 9.9526 1.42814 10.0274 1.51876 10.0274C1.71511 10.0274 1.92656 10.0274 2.1229 10.0274C2.40987 10.0274 2.40987 9.57866 2.1229 9.57866C1.92656 9.57866 1.71511 9.57866 1.51876 9.57866C1.59428 9.63849 1.6698 9.68336 1.73021 9.74319C1.33752 8.36707 1.33752 6.97599 1.56407 5.56996C1.6698 4.94173 1.80573 4.3135 1.97187 3.70023C2.07759 3.29637 2.40987 1.39672 3.24056 1.89033C3.51242 2.03991 3.73897 1.651 3.48221 1.50143Z" fill="#161616"/>
<path d="M19.809 4.71737C19.5371 4.3883 19.084 4.43317 19.0236 4.43317C18.5252 4.46309 18.0419 4.91182 17.5133 6.00374C16.4863 8.08289 16.4409 10.162 16.4409 10.4911C16.4258 11.9271 16.5618 14.2605 17.5888 17.0426C17.6794 18.2094 17.8758 19.8398 18.3138 21.7394C19.084 25.1498 19.8996 28.7397 22.7089 31.9257C23.7661 33.1373 25.8504 35.4857 29.4752 36.3383C33.2661 37.2357 36.3472 35.9045 37.1024 35.5605C37.767 35.2463 39.6247 34.319 41.1954 32.3595C42.147 31.1778 43.2495 29.8914 43.0683 28.3059C42.9927 27.6178 42.6907 27.0345 42.2376 26.1071C41.7845 25.1797 41.5428 24.716 41.0595 24.5365C40.395 24.2822 39.6851 24.731 38.8997 25.1797C37.5706 25.9276 37.4498 26.6456 36.015 27.3935C35.6374 27.5879 35.2598 27.7225 34.5046 27.9619C33.3115 28.3508 32.1334 28.7397 31.0459 28.8145C28.6747 28.979 26.7717 27.6328 26.2279 27.2439C24.2192 25.8229 23.4338 23.9232 22.9203 22.6817C21.7724 19.8996 21.8631 17.3418 22.0594 15.846C22.7693 15.7263 23.2073 15.4421 23.4187 15.2776C24.2192 14.6643 24.4155 13.8117 24.7176 12.4955C24.9139 11.6728 25.0046 11.239 24.7931 11.0745C24.3551 10.7454 23.0109 11.8223 22.7089 12.0766C22.7693 11.0595 22.9203 10.2368 23.0713 9.65346C23.2677 8.87565 23.3734 8.47179 23.6453 8.15768C24.1739 7.5444 24.7931 7.60424 25.0046 7.02088C25.1254 6.70676 25.1103 6.27299 24.8535 6.0187C24.5515 5.71955 23.902 5.7345 23.3432 6.16828C23.162 5.77938 22.7995 5.54005 22.4068 5.52509C22.0141 5.51014 21.7573 5.74946 21.6818 5.80929C21.7271 5.40543 21.5459 5.03148 21.2438 4.88191C20.836 4.6725 20.1866 4.91182 19.9449 5.52509C19.96 5.4503 20.0658 5.03149 19.809 4.71737Z" fill="white"/>
<path opacity="0.12" d="M19.0236 4.43316C18.6611 5.06139 18.208 5.98878 17.906 7.20037C17.2414 9.83295 17.7851 12.0318 18.0268 13.0938C20.6246 24.0579 19.4918 24.3271 21.3042 26.8999C21.9688 27.8272 26.53 34.0497 33.3265 33.227C39.0205 32.539 42.0412 27.4084 42.4339 26.7204C42.6605 27.3187 42.9323 28.3358 42.7511 29.5474C42.4792 31.3274 41.3616 32.4492 40.9538 32.868C40.5611 33.2569 40.0778 33.601 39.096 34.2741C38.22 34.8873 37.3592 35.4258 36.9816 35.6203C35.1843 36.6225 32.4052 36.8618 30.472 36.6075C25.216 35.9194 22.0594 30.9833 20.7454 28.9341C17.7398 24.2523 17.4378 19.5107 17.468 17.1473C17.181 16.19 16.894 15.2178 16.6071 14.2605C16.4107 12.7796 16.3956 11.5531 16.4258 10.7005C16.5013 8.56153 16.5618 6.96104 17.6643 5.59988C18.1476 5.00156 18.6762 4.64257 19.0236 4.43316Z" fill="#606060"/>
<path d="M39.4736 34.0497C41.86 32.9279 43.4609 30.5795 43.0683 27.917C42.8417 26.3015 41.5277 23.5194 39.4283 24.5066C38.4919 24.9553 37.7217 25.778 36.8608 26.3614C35.6676 27.1691 34.2932 27.7973 32.9188 28.2311C31.1668 28.7846 29.2184 28.9042 27.5269 28.0666C26.2884 27.4533 25.3218 26.4511 24.5817 25.3143C22.9505 22.8164 22.1047 19.8697 22.3011 16.8931C22.3162 16.6089 21.8631 16.6089 21.848 16.8931C21.6818 19.406 22.2407 21.7992 23.3583 24.0429C24.34 26.0473 25.7749 27.932 27.9497 28.7397C30.5928 29.7119 33.4776 28.7247 35.8639 27.4832C36.9363 26.9148 37.8576 26.1819 38.8242 25.4489C39.7002 24.7758 40.5762 24.4468 41.4673 25.3442C42.5698 26.4511 42.9021 28.3807 42.5698 29.8466C42.1621 31.5966 40.8481 32.9129 39.2471 33.6608C38.9903 33.7805 39.2169 34.1694 39.4736 34.0497Z" fill="#161616"/>
<path d="M22.2709 17.0875C22.0745 16.2648 22.6636 16.0554 23.2073 15.6665C23.5245 15.4422 23.7661 15.128 23.9927 14.8139C24.5666 13.9912 25.0197 13.0339 25.1405 12.0318C25.2009 11.5381 25.3067 10.7603 24.627 10.7304C23.8265 10.7005 23.4943 11.7027 22.7391 11.7775C22.4521 11.8074 22.4521 12.2561 22.7391 12.2262C23.313 12.1664 23.6 11.8074 24.038 11.4783C24.2947 11.2839 24.5817 11.0595 24.7176 11.4933C24.7931 11.7326 24.6723 12.1813 24.6119 12.4207C24.5062 12.9292 24.2796 13.4228 24.038 13.8865C23.8114 14.3054 23.5547 14.7391 23.2073 15.0832C22.8901 15.4122 22.4521 15.487 22.1047 15.7563C21.6365 16.1153 21.712 16.7285 21.8329 17.2221C21.9084 17.4914 22.3464 17.3717 22.2709 17.0875Z" fill="#161616"/>
<path d="M16.9998 14.7242C16.6977 12.7946 16.6675 10.8202 16.9696 8.89061C17.0904 8.1128 17.2414 7.32003 17.5133 6.57214C17.6794 6.10845 17.906 5.56996 18.2382 5.19602C18.6913 4.70241 19.5824 4.44812 19.8241 5.28576C19.8996 5.56996 20.3376 5.4503 20.2621 5.1661C20.0507 4.44812 19.3559 4.05922 18.6309 4.34342C17.7096 4.71737 17.2716 5.8392 16.9847 6.6918C16.1389 9.27951 16.1389 12.1813 16.5467 14.8438C16.6071 15.128 17.0451 15.0084 16.9998 14.7242Z" fill="#161616"/>
<path d="M19.1898 7.00591C19.5523 6.1234 20.5793 4.34342 21.6969 5.555C21.8933 5.76441 22.2105 5.4503 22.0141 5.24089C21.5006 4.68745 20.7605 4.5977 20.1111 4.97165C19.3861 5.37551 19.0538 6.16827 18.7518 6.9012C18.646 7.15549 19.084 7.27515 19.1898 7.00591Z" fill="#161616"/>
<path d="M21.0928 7.37987C21.1079 6.81147 21.3345 6.18324 21.8933 5.914C22.3615 5.68963 22.9203 5.79433 23.2375 6.1982C23.4187 6.42256 23.7359 6.10845 23.5546 5.88408C23.1166 5.34559 22.3313 5.21097 21.712 5.49517C20.9871 5.83921 20.6548 6.61702 20.6397 7.37987C20.6246 7.66408 21.0777 7.66408 21.0928 7.37987Z" fill="#161616"/>
<path d="M22.4068 7.52944C22.6787 6.52726 23.8114 5.61484 24.7931 6.42256C25.0197 6.60205 25.3369 6.28794 25.1103 6.10844C23.8567 5.09131 22.3464 6.04861 21.9688 7.40978C21.8933 7.69398 22.3313 7.81364 22.4068 7.52944Z" fill="#161616"/>
<path d="M24.7025 6.34777C25.1858 7.02087 24.1135 7.4397 23.7359 7.75381C23.4187 8.00809 23.2375 8.33717 23.1016 8.71111C22.7391 9.7432 22.5729 10.865 22.4823 11.942C22.4521 12.2262 22.9052 12.2262 22.9354 11.942C23.0109 11.1492 23.1318 10.3565 23.3281 9.57867C23.3885 9.32438 23.4489 9.0701 23.5396 8.81582C23.7359 8.29229 24.0229 8.09784 24.4609 7.78373C25.0046 7.39482 25.5785 6.76659 25.0952 6.09349C24.9291 5.88408 24.5364 6.10845 24.7025 6.34777Z" fill="#161616"/>
<path d="M16.4409 14.2754C16.6826 15.2926 16.9847 16.2947 17.3623 17.282C17.468 17.5512 17.906 17.4315 17.8003 17.1623C17.4227 16.1751 17.1206 15.1729 16.8789 14.1558C16.8185 13.8716 16.3805 13.9912 16.4409 14.2754Z" fill="#161616"/>
<path d="M17.2867 17.5662C17.8607 22.7117 19.1444 27.9918 22.6333 32.0005C25.4124 35.1865 29.8226 37.6097 34.1723 36.8169C36.2264 36.443 38.0992 35.4258 39.5945 34.0048C39.8059 33.8104 39.4887 33.4813 39.2773 33.6907C36.2868 36.5327 32.0277 37.2806 28.2367 35.5904C24.1588 33.7506 21.3042 30.2953 19.6882 26.2118C18.6007 23.4446 18.057 20.5129 17.7247 17.5811C17.7096 17.282 17.2565 17.282 17.2867 17.5662Z" fill="#161616"/>
</svg>
