<svg width="69" height="69" viewBox="0 0 69 69" fill="none" xmlns="http://www.w3.org/2000/svg">
<path fill-rule="evenodd" clip-rule="evenodd" d="M42.8576 22.2647C49.2051 22.2647 54.3508 17.2806 54.3508 11.1323C54.3508 4.98412 49.2051 0 42.8576 0C36.5101 0 31.3644 4.98412 31.3644 11.1323C31.3644 17.2806 36.5101 22.2647 42.8576 22.2647ZM42.8576 15.9634C45.6122 15.9634 47.8452 13.8004 47.8452 11.1323C47.8452 8.46425 45.6122 6.30133 42.8576 6.30133C40.103 6.30133 37.87 8.46425 37.87 11.1323C37.87 13.8004 40.103 15.9634 42.8576 15.9634Z" fill="#FEA300"/>
<path d="M32.2078 44.8178C31.5129 45.3972 30.6698 46.1203 29.709 46.9587C27.0983 49.237 23.7468 52.2556 20.424 55.2815C17.1059 58.3032 13.8352 61.315 11.3928 63.5726C10.172 64.7011 9.1589 65.6404 8.45128 66.2973C8.09749 66.6258 7.8201 66.8836 7.63133 67.0592L7.34423 67.3263L7.34342 67.3271C7.34342 67.3271 7.3432 67.3273 4.71371 64.6786L7.34342 67.3271C5.61686 68.9352 2.8711 68.8833 1.21085 67.211C-0.449392 65.5386 -0.395636 62.8793 1.33092 61.2712L4.06822 64.0284C1.33093 61.2712 1.33128 61.2708 1.33128 61.2708L1.62383 60.9986C1.81429 60.8215 2.0935 60.562 2.44923 60.2317C3.16066 59.5713 4.17834 58.6277 5.40436 57.4945C7.8557 55.2286 11.1431 52.2012 14.4824 49.1603C17.8172 46.1235 21.2224 43.056 23.9029 40.7167C25.2383 39.5513 26.426 38.5385 27.3482 37.7932C27.8037 37.4251 28.2412 37.084 28.6232 36.8121C28.8107 36.6786 29.0384 36.5233 29.2811 36.3796L29.2943 36.3717C29.4384 36.286 29.9974 35.9535 30.7332 35.7795C31.744 35.5405 32.5859 35.7008 32.9133 35.7721C33.3286 35.8625 33.6806 35.9903 33.924 36.0883C34.4162 36.2863 34.8996 36.5407 35.3124 36.7745C36.1612 37.2552 37.1737 37.9141 38.2354 38.6446C40.3823 40.1216 43.0398 42.1053 45.6088 44.1067C48.1814 46.1108 50.7247 48.1788 52.6452 49.837C53.5968 50.6587 54.4471 51.424 55.0828 52.0515C55.3909 52.3556 55.7239 52.7008 56.0068 53.0466C56.143 53.213 56.3441 53.4716 56.5322 53.789L56.5411 53.8039C56.6492 53.9846 57.1642 54.8461 57.1642 56.0277C57.1642 58.0092 55.8417 59.1252 55.4564 59.4221C54.9535 59.8096 54.4624 60.0223 54.2211 60.1198C53.6928 60.3335 53.1393 60.4704 52.734 60.5601C51.8608 60.7532 50.739 60.9246 49.5523 61.0785C47.1382 61.3916 43.9759 61.6921 40.8802 61.9518C37.7693 62.2129 34.6646 62.4378 32.3417 62.5973C31.1792 62.6771 30.21 62.7407 29.5308 62.7844C29.1911 62.8062 28.9238 62.8231 28.7409 62.8345L28.4578 62.8521C28.4578 62.8521 28.4574 62.8521 28.1846 58.6596L28.4574 62.8521C26.0668 62.998 24.0068 61.2392 23.8562 58.9237C23.7056 56.6082 25.5214 54.6129 27.9119 54.467L28.0782 57.0231C27.9119 54.467 27.9119 54.467 27.9119 54.467L27.9126 54.4669L28.1819 54.4502C28.36 54.4391 28.6221 54.4226 28.9562 54.4011C29.6246 54.3581 30.5807 54.2954 31.7284 54.2166C34.0259 54.0588 37.0819 53.8373 40.1316 53.5814C41.2705 53.4858 42.4002 53.3861 43.4835 53.2839C42.4305 52.4303 41.3088 51.5389 40.1725 50.6537C37.6739 48.7072 35.1644 46.8372 33.2125 45.4944C32.8473 45.2431 32.5119 45.0174 32.2078 44.8178Z" fill="#FEA300"/>
<path d="M19.5127 31.7301C20.7818 30.3372 22.1161 29.8921 23.9441 29.9521C26.0765 30.0221 28.6651 30.7909 32.0125 32.0121C32.6659 32.2505 33.3507 32.5073 34.0597 32.7732L34.0609 32.7736C36.7237 33.7721 39.7268 34.8981 42.6806 35.6558C46.4969 36.6347 50.8109 37.1737 55.1732 36.0078C57.6707 35.3403 59.692 34.024 60.9928 33.0142C61.6664 32.4913 62.2064 32.0035 62.5862 31.6381C62.7772 31.4544 62.9306 31.2987 63.0432 31.1813C63.0996 31.1226 63.1459 31.0731 63.1818 31.0343C63.1998 31.0149 63.2152 30.9981 63.228 30.984L63.2451 30.9651L63.2522 30.9572L63.2554 30.9537L63.2569 30.952C63.2576 30.9513 63.2583 30.9505 60.1617 28.3498L63.2583 30.9504C64.8275 29.1975 64.6324 26.5444 62.8227 25.0245C61.0192 23.5098 58.2926 23.6922 56.7209 25.4284C56.7179 25.4316 56.7121 25.4378 56.7034 25.447C56.6988 25.4518 56.6935 25.4575 56.6874 25.4638C56.6472 25.5057 56.5748 25.5797 56.4735 25.6771C56.2687 25.8742 55.9581 26.1554 55.5679 26.4584C54.7408 27.1004 53.7812 27.6641 52.866 27.9087C50.5985 28.5147 48.0022 28.3294 44.9012 27.534C42.4575 26.9071 40.0564 26.0084 37.4623 25.0373C36.6843 24.7461 35.889 24.4484 35.07 24.1496C31.7596 22.9418 27.9569 21.6772 24.238 21.5551C20.2147 21.423 16.2378 22.6271 13.0091 26.1707C10.8576 28.532 9.70133 30.95 9.08238 32.8044C8.77284 33.7318 8.59461 34.5268 8.4919 35.1189C8.44043 35.4156 8.40756 35.6634 8.38663 35.8538C8.37615 35.9491 8.36864 36.0303 8.36327 36.0963C8.36058 36.1294 8.35843 36.1586 8.35671 36.184L8.35445 36.2191L8.35354 36.2345L8.35313 36.2416L8.35294 36.245C8.35285 36.2467 8.35276 36.2483 12.6838 36.47L8.35276 36.2483C8.22633 38.5652 10.0629 40.5426 12.4549 40.6651C14.8259 40.7865 16.8527 39.0395 17.011 36.7523L17.012 36.7433C17.0156 36.7103 17.0254 36.6306 17.0461 36.5111C17.0877 36.271 17.1722 35.8793 17.3359 35.3889C17.6634 34.4078 18.2956 33.0659 19.5127 31.7301Z" fill="#FEA300"/>
</svg>
